<svg width="300" height="227" viewBox="0 0 300 227" fill="none" xmlns="http://www.w3.org/2000/svg">
<path d="M48.5714 226.966C46.1905 226.966 44.2262 226.2 42.6786 224.668C41.131 223.136 40.3571 221.192 40.3571 218.835V204.34H33.2143C23.9286 204.34 16.0714 201.159 9.64286 194.795C3.21429 188.432 0 180.654 0 171.462V89.4431C0 78.8372 3.27381 71.0006 9.82143 65.9334C16.369 60.8661 23.5714 58.3325 31.4286 58.3325V31.1106C31.4286 21.9189 34.4048 14.4358 40.3571 8.66149C46.3095 2.88716 53.8095 0 62.8571 0H237.143C246.429 0 253.988 2.88716 259.821 8.66149C265.655 14.4358 268.571 21.9189 268.571 31.1106V58.3325C276.905 58.3325 284.226 60.925 290.536 66.1101C296.845 71.2952 300 79.0729 300 89.4431V171.462C300 180.654 296.786 188.432 290.357 194.795C283.929 201.159 276.071 204.34 266.786 204.34H259.643V218.835C259.643 221.192 258.869 223.136 257.321 224.668C255.774 226.2 253.929 226.966 251.786 226.966C249.643 226.966 247.738 226.2 246.071 224.668C244.405 223.136 243.571 221.192 243.571 218.835V204.34H56.4286V218.835C56.4286 221.192 55.6548 223.136 54.1071 224.668C52.5595 226.2 50.7143 226.966 48.5714 226.966ZM33.2143 188.078H266.786C271.548 188.078 275.595 186.428 278.929 183.129C282.262 179.829 283.929 175.94 283.929 171.462V89.4431C283.929 84.9651 282.5 81.3119 279.643 78.4837C276.786 75.6554 273.095 74.2413 268.571 74.2413C264.048 74.2413 260.357 75.6554 257.5 78.4837C254.643 81.3119 253.214 84.9651 253.214 89.4431V146.715H46.7857V89.4431C46.7857 84.9651 45.3571 81.3119 42.5 78.4837C39.6429 75.6554 35.9524 74.2413 31.4286 74.2413C26.9048 74.2413 23.2143 75.6554 20.3571 78.4837C17.5 81.3119 16.0714 84.9651 16.0714 89.4431V171.462C16.0714 175.94 17.7381 179.829 21.0714 183.129C24.4048 186.428 28.4524 188.078 33.2143 188.078V188.078ZM62.8571 130.453H237.143V89.4431C237.143 83.0796 238.69 77.6588 241.786 73.1807C244.881 68.7027 248.333 65.2852 252.143 62.9284V31.1106C252.143 26.6326 250.714 22.9795 247.857 20.1512C245 17.323 241.429 15.9089 237.143 15.9089H62.8571C58.5714 15.9089 55 17.323 52.1429 20.1512C49.2857 22.9795 47.8571 26.6326 47.8571 31.1106V62.9284C51.6667 65.2852 55.119 68.7027 58.2143 73.1807C61.3095 77.6588 62.8571 83.0796 62.8571 89.4431V130.453Z" fill="#C0C3FF"/>
</svg>
